<mxfile host="app.diagrams.net" modified="2023-12-01T20:15:20.333Z" agent="Mozilla/5.0 (Windows NT 10.0; Win64; x64) AppleWebKit/537.36 (KHTML, like Gecko) Chrome/119.0.0.0 Safari/537.36 Edg/119.0.0.0" version="22.1.5" etag="WSRZahAoj5ywSlxHba4f" type="github">
  <diagram name="PÃ¡gina-1" id="5guIXQBvEX03lysdYR12">
    <mxGraphModel>
      <root>
        <mxCell id="0" />
        <mxCell id="1" parent="0" />
      </root>
    </mxGraphModel>
  </diagram>
</mxfile>
